<?xml version="1.0" encoding="utf-8" ?><svg xmlns="http://www.w3.org/2000/svg" xmlns:xlink="http://www.w3.org/1999/xlink" width="1024" height="1024" viewBox="0 0 1024 1024"><path fill="#0CA1E7" d="M293.754 131.692C294.495 131.577 294.255 131.591 294.979 131.561C345.377 129.428 387.048 165.384 392.99 215.392C393.596 220.496 393.838 225.271 394.07 230.388C405.195 222.685 414.091 218.513 427.942 217.827C441.713 217.144 456.596 222.209 466.753 231.642C474.33 238.726 479.543 247.971 481.684 258.121C483.383 266.248 482.676 273.995 482.376 282.212C481.427 308.17 480.392 334.108 480.441 360.089C480.458 368.76 479.777 377.29 480.044 386.018C465.578 369.261 450.442 350.012 436.301 332.798L367.878 250.524C356.457 236.852 345.179 223.049 333.68 209.442C324.177 198.195 316.65 191.885 301.528 190.849C290.667 190.073 279.957 193.738 271.849 201.005C258.035 213.393 253.09 234.811 264.054 250.707C271.709 261.806 281.602 271.994 290.381 282.329L339.023 340.273L430.144 449.278L459.07 483.875C464.892 490.854 470.932 498.433 477.035 505.07C476.121 511.651 476.729 519.51 476.144 526.307C474.052 550.638 475.027 574.928 474.263 599.222L324.853 420.86L283.378 371.434C274.588 360.913 265.371 349.631 255.86 339.784C250.154 333.877 244.704 330.378 236.668 328.405C226.017 325.859 214.79 327.675 205.484 333.448C188.064 343.549 180.248 369.989 191.569 387.108C197.087 395.452 204.756 403.465 211.405 411.019C221.057 422.004 230.62 433.067 240.092 444.208L336.759 558.21C352.752 577.129 369.853 595.809 384.965 615.383C364.055 615.994 342.725 615.146 321.777 615.429C315.842 615.51 309.064 615.673 303.234 615.071C298.713 610.48 294.431 604.991 290.243 600.044C264.627 569.783 239.236 539.322 213.124 509.488C204.194 499.285 195.394 493.101 181.515 492.53C170.757 492.119 160.28 496.017 152.407 503.358C140.626 514.27 134.818 535.864 142.743 550.585C150.272 564.571 165.64 578.427 175.988 590.978C182.158 598.463 190.158 607.908 196.747 615.023C189.21 615.825 180.202 615.542 172.512 615.495L137.707 615.295C109.898 615.184 105.909 614.819 82.114 630.181C91.456 617.985 101.017 607.579 115.657 601.802C115.365 601.559 115.078 601.313 114.793 601.063C97.8646 586.25 88.8399 567.997 87.374 545.484C86.0126 524.04 93.2503 502.938 107.486 486.843C124.971 467.164 145.692 459.257 171.437 457.797C164.883 453.183 158.163 448.333 152.316 442.855C134.465 426.132 124.717 402.55 123.997 378.236C123.094 352.313 132.776 327.139 150.817 308.502C168.87 289.647 191.339 279.585 217.366 278.94C210.505 269.738 205.181 252.358 203.751 241.092C200.448 215.214 207.666 189.093 223.787 168.582C242.01 145.503 265.149 134.937 293.754 131.692Z"/><path fill="#0CA1E7" d="M731.389 143.733C753.548 145.312 774.767 153.314 792.45 166.761C817.501 186.135 826.536 209.887 830.296 240.137C818.258 226.769 799.564 222.363 782.743 228.504C770.736 232.845 760.958 241.796 755.576 253.373C750.933 263.851 750.576 275.73 754.582 286.468C758.897 297.938 768.454 307.546 779.608 312.472C790.422 317.267 802.691 317.602 813.75 313.405C826.372 308.496 832.154 300.466 837.371 288.607C841.759 289.836 846.22 292.141 850.252 294.209C865.487 302.023 872.632 309.471 883.875 321.636C876.276 324.963 869.756 328.249 864.206 334.615C847.688 353.561 849.439 381.6 868.538 398.082C880.666 408.549 891.488 410.435 906.847 409.581C900.097 436.894 887.692 457.348 864.841 474.141C848.041 486.488 845.195 482.242 826.413 483.257C805.662 484.379 777.778 495.252 760.507 507.633C750.231 498.131 738.467 488.239 727.862 478.985L667.484 426.345C659.567 419.979 648.964 409.822 640.917 402.771L587.787 356.592L535.064 310.354C524.294 300.96 511.119 290.039 500.987 280.287C502.304 257.867 501.471 249.332 508.975 227.899C516.495 234.412 526.194 244.944 533.406 252.36C546.02 265.441 558.719 278.44 571.503 291.354C580.422 300.482 592.47 315.097 604.426 318.898C614.894 322.316 626.297 321.377 636.064 316.293C646.056 310.977 652.767 301.271 656.048 290.637C663.939 265.07 645.205 250.656 629.262 234.4C625.327 230.387 621.566 226.591 617.732 222.703L583.747 188.173C580.515 184.944 569.402 174.468 567.829 171.527L568.31 170.492C573.632 167.016 587.929 165.287 594.356 164.554C610.467 162.716 638.05 167.871 650.521 178.665C652.056 183.247 653.492 189.507 656.017 193.561C677.561 228.148 726.802 216.798 737.193 179.293C740.829 166.168 738.007 155.139 731.389 143.733ZM724.255 424.133C748.798 421.817 766.826 400.059 764.54 375.513C762.253 350.967 740.516 332.913 715.968 335.171C691.378 337.432 673.287 359.213 675.577 383.8C677.868 408.387 699.671 426.452 724.255 424.133Z"/><path fill="#0CA1E7" d="M713.231 338.759C735.795 335.038 757.106 350.308 760.838 372.871C764.569 395.434 749.309 416.752 726.748 420.494C704.172 424.238 682.837 408.966 679.104 386.388C675.37 363.811 690.651 342.483 713.231 338.759Z"/><path fill="#0CA1E7" d="M635.776 494.7C641.102 493.897 655.261 494.571 660.416 495.391C695.579 500.988 716.689 519.129 737.142 546.285C732.895 554.266 728.907 562.382 725.185 570.621C733.202 573.74 740.649 577.285 747.153 583.014C776.048 608.465 775.509 654.315 750.318 682.172C732.087 702.333 713.616 709.723 687.138 711.364C655.513 710.029 632.688 699.437 608.4 679.357C576.534 653.012 546.966 613.59 542.695 571.435C541.198 556.659 547.539 545.776 556.832 534.858C579.098 508.699 602.437 497.866 635.776 494.7ZM667.891 666.032C668.946 666.112 669.793 666.431 670.185 665.839C675.003 658.567 680.444 647.064 684.385 639.569C689.445 630.068 694.593 620.613 699.827 611.206C703.012 605.446 706.894 598.042 710.557 592.714C702.493 570.654 685.198 556.088 660.845 558.195C632.755 561.722 613.786 584.312 616.455 612.851C618.312 632.7 633.792 645.717 648.677 657.244C654.313 661.623 660.891 664.632 667.891 666.032Z"/><path fill="#0CA1E7" d="M664.397 561.212C684.13 561.366 700.901 572.995 706.909 591.904C702.755 601.867 695.639 612.909 690.376 622.571C686.423 629.827 682.126 638.216 677.577 645.003C675.037 648.793 666.383 649.03 662.001 649.385C658.979 649.292 656.142 649.221 653.223 648.696C614.275 641.689 607.625 589.245 639.668 568.778C648.193 563.333 654.576 561.873 664.397 561.212Z"/><path fill="#0CA1E7" d="M729.885 568.89C737.043 543.036 759.85 516.038 782.964 503.184C807.377 489.609 837.131 483.489 864.353 491.216C894.674 499.934 920.276 520.368 935.5 548.002C951.012 575.925 954.63 608.918 945.537 639.539C937.494 667.393 920.333 685.886 896.61 701.182C910.106 716.169 917.958 740.268 920.793 759.884C922.846 774.09 921.419 788.993 919.609 803.165L919.772 803.845L919.365 804.222C918.145 802.085 918.135 801.447 917.61 798.975C905.767 743.411 859.988 697.294 809.799 673.581C795.638 666.89 782.529 663.143 767.193 660.493C773.804 639.991 774.696 620.74 764.717 601.012C757.656 587.054 744.499 574.678 729.885 568.89Z"/><path fill="#0EB2FA" d="M917.61 798.975L919.098 798.892C919.854 800.584 919.409 801.329 919.609 803.165L919.772 803.845L919.365 804.222C918.145 802.085 918.135 801.447 917.61 798.975Z"/><path fill="#0CA1E7" d="M766.045 663.486C771.462 664.933 776.972 665.83 782.678 667.406C801.283 672.472 818.945 680.518 834.978 691.232C874.41 717.439 904.712 755.584 915.094 802.824C917.361 813.137 913.72 821.632 907.809 829.985C887.006 859.38 861.875 874.549 827.189 881.165C811.327 882.776 798.564 882.237 782.848 878.36C759.736 872.659 732.215 853.115 720.261 832.532C722.254 828.007 724.705 824.402 727.337 820.259C708.437 809.102 695.579 796.902 688.632 775.534C681.903 755.341 683.536 733.295 693.167 714.314C715.117 712.126 737.652 702.025 751.885 684.906C757.712 677.899 761.603 671.34 766.045 663.486ZM738.42 802.804C754.595 809.981 767.556 817.263 785.375 818.962C834.5 813.957 842.164 756.307 807.125 728.68C797.715 721.26 792.529 720.774 782.188 716.653C768.838 743.833 753.347 776.681 738.42 802.804Z"/><path fill="#0CA1E7" d="M538.945 575.24C540.486 577.424 544.552 595.941 546.369 600.999C564.65 651.887 632.16 720.952 690.366 714.136C681.542 731.123 679.151 750.726 683.634 769.336C689.211 793.164 702.607 808.551 722.94 821.266C712.626 843.374 690.684 860.806 668.692 870.553C648.317 878.741 630.046 881.432 608.123 878.251C576.238 873.609 547.472 856.576 528.07 830.852C509.845 806.43 502.132 775.738 506.647 745.601C511.966 711.627 529.903 687.317 557.209 667.549C555.312 664.87 554.19 662.444 552.767 659.553C542.039 637.759 537.363 616.349 537.469 592.129C537.491 587.195 537.346 579.862 538.945 575.24ZM603.207 805.748C629.194 803.184 648.141 779.976 645.452 754.002C642.763 728.028 619.464 709.193 593.503 712.007C567.718 714.803 549.04 737.909 551.71 763.706C554.381 789.504 577.397 808.294 603.207 805.748Z"/><path fill="#0CA1E7" d="M221.174 331.132C224.364 330.843 227.574 330.864 230.759 331.194C244.31 332.595 249.819 337.795 258.771 347.607C267.768 357.469 275.996 367.733 284.485 378.015C296.312 392.189 308.244 406.275 320.28 420.272C371.729 480.981 422.802 542.007 473.496 603.348L473.224 615.579C463.762 615.843 453.283 615.54 443.75 615.459C425.74 615.28 407.324 615.51 389.281 615.538C375.961 597.562 356.798 576.625 342.018 559.095L238.973 437.771C231.219 428.566 223.37 419.442 215.428 410.398C207.259 401.081 193.11 386.985 190.584 375.076C188.609 365.354 190.611 355.245 196.143 347.01C202.263 337.764 210.537 333.263 221.174 331.132Z"/><path fill="#0CA1E7" d="M223.645 621.589C237.089 620.583 248.204 622.556 259.976 629.252C291.312 647.078 303.492 682.309 316.599 713.42L349.742 792.54L374.313 850.418C378.218 859.582 385.376 875.204 388.009 884.491L354.457 884.062C341.851 883.974 324.788 884.647 312.802 884.01C292.998 852.874 275.479 820.176 257.02 788.231C247.621 771.965 189.341 674.484 188.444 665.326C187.529 655.987 188.861 647.454 194.018 639.453C201.09 628.481 211.33 624.164 223.645 621.589Z"/><path fill="#0CA1E7" d="M116.957 619.67C123.359 619.352 131.347 620.664 137.428 622.616C167.237 632.181 180.603 662.517 194.915 687.788L230.462 750.183L277.594 831.762C287.476 848.571 299.302 866.981 308.031 884.264C290.37 884.142 272.709 884.142 255.049 884.264C248.613 884.316 232.26 884.9 226.95 883.91C222.026 878.649 214.409 867.148 210.086 860.927L183.735 823.064L86.3986 683.247C82.7009 677.465 73.1373 664.808 70.4951 659.025C71.6705 656.01 72.872 653.006 74.0997 650.012C80.7745 661.576 95.1706 681.055 103.172 692.59C120.339 717.815 137.717 742.894 155.306 767.827L208.099 843.284C211.414 848.027 214.745 852.854 217.965 857.657C220.268 861.092 226.305 872.805 230.298 873.344L230.911 872.656C230.843 869.873 228.015 866.004 226.454 863.73C185.335 803.862 142.9 744.902 101.628 685.14C93.0623 672.737 85.0215 658.543 75.4815 646.971C85.3683 629.76 97.2852 621.875 116.957 619.67Z"/><path fill="#0CA1E7" d="M335.262 621.174C369.359 616.915 405.901 647.874 413.667 679.874C415.671 688.131 417.597 696.483 419.485 704.771L431.225 755.748L448.243 827.514C452.712 845.866 457.922 865.889 461.439 884.337C450.165 884.177 438.551 884.322 427.25 884.344L391.967 884.395C380.988 855.792 367.846 826.192 355.757 797.912L326.28 727.376L312.86 696.153C308.719 686.604 300.798 670.725 299.527 660.997C296.528 638.054 315.574 623.782 335.262 621.174Z"/><path fill="#0CA1E7" d="M293.802 194.63C319.279 191.542 328.575 208.519 342.982 225.825L376.352 266.01C411.259 308.286 445.844 349.038 480.069 392.035C479.569 427.743 476.939 464.452 476.982 500.246L464.007 484.821C418.012 428.567 370.054 372.559 323.492 316.654L285.865 271.495C277.98 262.12 264.902 250.065 262.484 238.015C260.514 228.491 262.511 218.575 268.014 210.556C274.731 200.879 282.577 196.739 293.802 194.63Z"/><path fill="#0CA1E7" d="M447.343 622.172C460.311 620.197 479.833 625.613 490.6 633.238C511.946 648.357 519.398 667.341 524.268 691.595C520.552 697.634 516.77 702.656 513.213 709.101C499.562 733.671 496.27 769.973 503.452 797.331C510.973 825.986 520.36 855.785 528.618 884.509L519.875 884.45C501.532 884.315 483.189 884.312 464.846 884.443C463.293 875.312 460.671 865.171 458.558 856.074C454.99 840.335 451.285 824.629 447.444 808.955L428.313 726.62L420.358 692.587C416.379 675.459 408.796 651.986 421.139 636.831C428.237 628.117 436.188 623.496 447.343 622.172Z"/><path fill="#0CA1E7" d="M563.487 171.961C566.08 173.831 584.54 193.191 588.161 196.885L619.709 229.358C627.685 237.47 635.638 245.307 643.391 253.686C653.516 264.167 657.299 277.025 652.708 291.212C645.761 312.675 625.546 321.789 604.677 315.556C592.447 310.947 575.322 290.9 565.771 281.178C547.08 262.243 528.645 243.055 510.472 223.622C520.212 199.538 540.314 182.612 563.487 171.961Z"/><path fill="#0CA1E7" d="M176.319 496.176C183.956 494.533 195.495 497.771 201.503 502.652C208.734 508.526 214.651 516.061 220.674 523.136L242.433 548.9C260.833 570.814 280.567 593.276 298.411 615.483L266.125 615.508C244.505 615.322 222.884 615.319 201.264 615.501C185.689 598.691 171.219 579.966 155.787 562.953C149.359 555.867 144.167 548.85 142.774 539.16C141.358 529.195 143.975 519.077 150.045 511.049C156.521 502.53 165.789 497.562 176.319 496.176Z"/><path fill="#0CA1E7" d="M553.984 331.407C556.055 333.128 558.203 335.136 560.205 336.951C574.123 349.57 589.08 361.411 602.414 374.647C566.16 440.787 532.079 508.833 495.195 574.205C489.403 584.873 483.299 595.59 477.371 606.201C477.532 594.728 477.524 583.397 479.38 572.034C482.322 554.023 489.123 537.081 493.839 519.579C507.894 467.414 526.117 416.174 543.084 364.882C546.768 353.744 550.247 342.495 553.984 331.407Z"/><path fill="#0CA1E7" d="M605.295 376.815C621.461 390.006 645.608 408.608 659.264 423.525C645.831 437.859 632.633 452.412 619.676 467.178C610.307 477.797 601.036 488.793 591.106 498.867C578.879 511.718 557.774 522.561 549.326 538.68C538.859 558.651 526.254 569.62 510.179 585.078C502.645 592.866 488.802 604.397 480.136 611.463C484.26 601.848 492.857 587.686 498.222 578.339C506.135 564.311 513.948 550.227 521.662 536.089C545.929 491.635 567.561 445.744 592.533 401.656C597.061 393.662 601.21 385.064 605.295 376.815Z"/><path fill="#0CA1E7" d="M500.251 285.178C517.167 298.369 533.88 315.076 550.743 328.349C541.828 354.89 532.781 381.385 523.601 407.834C514.912 433.906 506.536 460.081 498.475 486.354C492.361 506.546 485.522 527.745 481.229 548.334L479.008 555.726C478.897 552.031 479.03 548.131 479.099 544.419C479.345 533.213 480.107 521.936 480.435 510.746C480.669 502.781 480.432 494.676 480.614 486.668C481.025 469.955 481.633 453.248 482.439 436.55C482.862 426.326 482.991 416.072 483.417 405.854C484.098 389.547 487.798 373.326 489.957 357.124C493.158 333.093 496.068 309.06 500.251 285.178Z"/><path fill="#0EB2FA" d="M479.099 544.419L479.872 544.219L481.229 548.334L479.008 555.726C478.897 552.031 479.03 548.131 479.099 544.419Z"/><path fill="#0CA1E7" d="M795.421 228.625C796.422 228.587 797.423 228.579 798.424 228.6C814.399 228.997 820.533 235.317 830.809 246.141C826.357 262.994 822.661 271.048 811.77 284.334C821.024 284.501 825.122 284.967 834.075 287.392C833.58 288.757 833.038 290.106 832.45 291.434C828.295 300.813 820.294 306.895 810.917 310.541C808.665 311.335 806.719 311.771 804.37 312.164C793.209 314.135 781.725 311.522 772.516 304.916C763.69 298.59 757.238 288.473 755.588 277.703C753.877 266.675 756.624 255.419 763.223 246.418C771.515 235.136 782.063 230.724 795.421 228.625Z"/><path fill="#0CA1E7" d="M724.483 143.707C729.973 143.099 731.284 148.334 732.728 152.903C745.221 192.426 708.915 223.007 671.916 205.044C662.227 199.327 657.439 191.734 654.153 181.274C675.863 156.328 692.002 147.305 724.483 143.707Z"/><path fill="#0CA1E7" d="M885.058 324.493C888.375 325.006 895.169 337.609 896.927 340.892C907.787 361.171 911.455 384.17 907.968 406.861C898.421 407.304 892.775 407.498 883.89 404.068C873.488 399.562 864.636 391.748 859.918 381.33C855.381 371.305 855.038 359.883 858.964 349.604C863.794 337.147 873.15 329.672 885.058 324.493Z"/><path fill="#0CA1E7" d="M933.475 674.341C935.894 675.998 937.202 680.994 938.178 683.745C950.639 718.863 949.688 758.893 933.212 792.56C928.809 801.557 924.976 808.573 918.325 815.964L921.336 806.798C921.644 805.433 922.066 804.075 922.348 802.76C927.79 777.417 926.19 751.308 915.555 727.454C911.421 718.181 907.053 711.067 901.938 702.521C915.886 692.798 922.346 688.02 933.475 674.341Z"/><path fill="#0CA1E7" d="M716.41 474.341C722.971 477.931 751.254 503.215 757.38 509.003C749.769 514.425 737.11 524.332 728.617 528.36C727.952 528.675 727.448 528.079 726.626 527.553C714.241 514.762 699.419 504.58 683.034 497.611C685.644 495.328 691.737 491.359 694.771 489.262L716.41 474.341Z"/><path fill="#0CA1E7" d="M909.721 509.575C936.623 527.684 952.008 547.571 959.422 580.324C964.89 604.479 957.322 638.213 943.251 658.665C942.601 659.603 941.923 660.522 941.219 661.42L941.409 660.875C944.272 652.828 947.676 647.03 950.097 638.255C957.643 610.909 954.792 581.009 942.846 555.449C934.96 538.209 923.22 523.01 908.531 511.025L909.721 509.575Z"/><path fill="#0CA1E7" d="M532.157 589.451L532.86 589.817C533.972 593.504 534.536 610.793 534.553 615.086C522.899 614.743 510.079 615.091 498.31 615.217C496.749 615.212 496.62 615.18 495.086 614.846L494.992 614.316C497.7 611.707 503.025 608.695 506.281 606.42C514.854 600.43 523.096 594.679 532.157 589.451Z"/><path fill="#0CA1E7" d="M535.319 565.92C536.521 567.874 534.28 580.812 533.785 583.706C517.642 593.721 502.702 603.931 486.968 614.505L486.553 613.982C489.023 611.16 492.691 608.188 495.466 605.364C508.569 592.033 522.158 579.197 535.319 565.92Z"/><path fill="#0CA1E7" d="M486.032 281.025C489.578 281.048 493.125 281.089 496.671 281.148C495.539 287.811 492.274 321.887 489.512 325.333C487.893 325.96 486.72 326.209 485.44 327.278L484.509 327.376C484.572 313.97 485.277 294.459 486.032 281.025Z"/><path fill="#0EB2FA" fill-opacity="0.94509804" d="M908.531 511.025C906.708 509.61 900.103 504.616 899.116 503.233C902.523 504.715 906.526 507.505 909.721 509.575L908.531 511.025Z"/><path fill="#0CA1E7" fill-opacity="0.94901961" d="M484.509 327.376L485.44 327.278C485.059 333.675 485.33 338.816 484.682 345.466C484.209 346.114 484.419 345.861 484.382 346.923C484.038 344.917 484.35 330.092 484.509 327.376Z"/></svg>